/* XPM */
static char * bigIcon_xpm[] = {
"48 48 324 2",
"  	c None",
". 	c #686868",
"+ 	c #919191",
"@ 	c #A0A0A0",
"# 	c #A6A6A6",
"$ 	c #A4A4A6",
"% 	c #A4A4A4",
"& 	c #A3A3A4",
"* 	c #A3A3A3",
"= 	c #A2A2A3",
"- 	c #A2A2A2",
"; 	c #A2A1A2",
"> 	c #A1A1A1",
", 	c #A1A0A1",
"' 	c #A0A0A1",
") 	c #9F9FA0",
"! 	c #9F9F9F",
"~ 	c #9F9E9F",
"{ 	c #9E9E9F",
"] 	c #9E9E9E",
"^ 	c #989899",
"/ 	c #848384",
"( 	c #5F5D5F",
"_ 	c #9C9C9C",
": 	c #D7D7D7",
"< 	c #CECECE",
"[ 	c #C3C3C3",
"} 	c #BDBDBD",
"| 	c #BCBCBD",
"1 	c #BABABB",
"2 	c #B8B8B9",
"3 	c #B6B6B7",
"4 	c #B4B4B5",
"5 	c #B3B3B4",
"6 	c #B2B2B3",
"7 	c #B0B0B1",
"8 	c #AFAFB0",
"9 	c #AEADAF",
"0 	c #ACACAD",
"a 	c #ACABAC",
"b 	c #AAAAAB",
"c 	c #A9A8AA",
"d 	c #A7A7A8",
"e 	c #A6A5A7",
"f 	c #A4A4A5",
"g 	c #A1A0A2",
"h 	c #9E9D9F",
"i 	c #9D9C9E",
"j 	c #9B9B9C",
"k 	c #9B9A9B",
"l 	c #9A999B",
"m 	c #99989A",
"n 	c #989799",
"o 	c #979698",
"p 	c #969597",
"q 	c #959496",
"r 	c #939295",
"s 	c #929294",
"t 	c #929193",
"u 	c #949496",
"v 	c #909091",
"w 	c #666566",
"x 	c #9D9D9D",
"y 	c #DADADB",
"z 	c #C0C0C1",
"A 	c #B9B9B9",
"B 	c #B7B7B7",
"C 	c #B5B5B5",
"D 	c #B3B3B3",
"E 	c #B1B1B2",
"F 	c #ADADAE",
"G 	c #ACABAD",
"H 	c #A9A9AA",
"I 	c #A1A1A2",
"J 	c #A09FA1",
"K 	c #9F9EA0",
"L 	c #9C9B9D",
"M 	c #949395",
"N 	c #939294",
"O 	c #919092",
"P 	c #908F91",
"Q 	c #8F8E90",
"R 	c #8E8D8F",
"S 	c #8C8B8E",
"T 	c #8B8A8D",
"U 	c #8A898C",
"V 	c #89888B",
"W 	c #88878A",
"X 	c #878689",
"Y 	c #868588",
"Z 	c #858487",
"` 	c #828184",
" .	c #5B5B5B",
"..	c #6B6B6B",
"+.	c #DADADA",
"@.	c #C2C2C3",
"#.	c #ABABAC",
"$.	c #A8A8A9",
"%.	c #A3A2A4",
"&.	c #8D8C8F",
"*.	c #838286",
"=.	c #828185",
"-.	c #737275",
";.	c #909090",
">.	c #D3D3D3",
",.	c #BABABA",
"'.	c #AEAEAF",
").	c #A5A5A6",
"!.	c #A4A3A5",
"~.	c #8F8E91",
"{.	c #8E8D90",
"].	c #848387",
"^.	c #818084",
"/.	c #807F83",
"(.	c #565657",
"_.	c #C7C7C8",
":.	c #B8B8B8",
"<.	c #B6B6B6",
"[.	c #A7A6A8",
"}.	c #9C9C9D",
"|.	c #9B9A9C",
"1.	c #99999A",
"2.	c #919093",
"3.	c #908F92",
"4.	c #868589",
"5.	c #858488",
"6.	c #7F7E82",
"7.	c #595859",
"8.	c #AAAAAA",
"9.	c #C3C3C4",
"0.	c #B5B5B6",
"a.	c #A6A6A7",
"b.	c #929194",
"c.	c #88878B",
"d.	c #87868A",
"e.	c #7E7D81",
"f.	c #59595A",
"g.	c #C1C1C2",
"h.	c #A8A7A9",
"i.	c #A5A4A6",
"j.	c #A2A1A3",
"k.	c #9D9D9E",
"l.	c #8D8C8E",
"m.	c #8C8B8D",
"n.	c #8B8A8C",
"o.	c #848386",
"p.	c #838285",
"q.	c #818083",
"r.	c #595959",
"s.	c #A9A9A9",
"t.	c #C0C0C0",
"u.	c #9A9A9B",
"v.	c #979798",
"w.	c #7D7C80",
"x.	c #A8A8A8",
"y.	c #BEBEBE",
"z.	c #7C7B7F",
"A.	c #959596",
"B.	c #585859",
"C.	c #AAA9AB",
"D.	c #7B7A7E",
"E.	c #B9B9BA",
"F.	c #969697",
"G.	c #7A797D",
"H.	c #79787C",
"I.	c #585858",
"J.	c #A5A5A5",
"K.	c #B6B5B6",
"L.	c #D3D3D4",
"M.	c #DBDBDC",
"N.	c #B5B4B6",
"O.	c #CDCCCD",
"P.	c #D7D7D8",
"Q.	c #D0CFD0",
"R.	c #ADADAF",
"S.	c #C5C4C6",
"T.	c #D5D5D6",
"U.	c #D0D0D1",
"V.	c #BDBDBE",
"W.	c #949396",
"X.	c #A9A8AB",
"Y.	c #C8C8CA",
"Z.	c #CACACB",
"`.	c #ABABAD",
" +	c #78777B",
".+	c #ECECEC",
"++	c #FFFFFF",
"@+	c #FBFBFB",
"#+	c #ABAAAC",
"$+	c #E5E5E5",
"%+	c #969698",
"&+	c #D7D6D7",
"*+	c #FEFEFE",
"=+	c #C4C4C6",
"-+	c #807F82",
";+	c #A8A7AA",
">+	c #EFEFF0",
",+	c #F0F0F1",
"'+	c #99989B",
")+	c #585758",
"!+	c #D6D6D7",
"~+	c #D9D8D9",
"{+	c #EFEFEF",
"]+	c #F2F2F3",
"^+	c #E5E4E5",
"/+	c #FAFAFA",
"(+	c #919194",
"_+	c #77767A",
":+	c #575758",
"<+	c #B2B1B3",
"[+	c #F2F2F2",
"}+	c #DCDCDD",
"|+	c #767579",
"1+	c #A4A3A4",
"2+	c #C4C4C5",
"3+	c #E0E0E0",
"4+	c #C6C6C7",
"5+	c #F6F6F6",
"6+	c #CFCFD0",
"7+	c #B7B6B9",
"8+	c #CECDCF",
"9+	c #FDFDFE",
"0+	c #F1F1F1",
"a+	c #BCBBBD",
"b+	c #B6B5B8",
"c+	c #E4E4E4",
"d+	c #757478",
"e+	c #AFAFAF",
"f+	c #F7F7F7",
"g+	c #F0F0F0",
"h+	c #D9D9DA",
"i+	c #DCDBDC",
"j+	c #B8B7B9",
"k+	c #BAB9BB",
"l+	c #F8F8F8",
"m+	c #88888B",
"n+	c #E8E8E8",
"o+	c #CDCDCE",
"p+	c #B1B0B1",
"q+	c #CFCECF",
"r+	c #A2A1A4",
"s+	c #8A8A8D",
"t+	c #D8D8D9",
"u+	c #BEBEC0",
"v+	c #959598",
"w+	c #747377",
"x+	c #E0DFE0",
"y+	c #F9F9F9",
"z+	c #E2E1E2",
"A+	c #959497",
"B+	c #A3A2A3",
"C+	c #9E9DA0",
"D+	c #DBDADB",
"E+	c #D0CFD1",
"F+	c #B6B6B8",
"G+	c #CDCCCE",
"H+	c #ECECED",
"I+	c #EBEBEC",
"J+	c #575757",
"K+	c #A9A8A9",
"L+	c #DAD9DA",
"M+	c #B1B0B2",
"N+	c #B3B3B5",
"O+	c #737276",
"P+	c #F3F3F3",
"Q+	c #DAD9DB",
"R+	c #B5B5B7",
"S+	c #E2E2E3",
"T+	c #BCBCBE",
"U+	c #CFCED0",
"V+	c #8A898D",
"W+	c #575557",
"X+	c #A5A4A5",
"Y+	c #E9E9EA",
"Z+	c #D4D4D5",
"`+	c #FDFDFD",
" @	c #CCCBCD",
".@	c #B2B2B4",
"+@	c #929295",
"@@	c #727175",
"#@	c #A3A2A5",
"$@	c #F3F3F4",
"%@	c #89888C",
"&@	c #E6E6E7",
"*@	c #EEEEEE",
"=@	c #B0AFB2",
"-@	c #979699",
";@	c #A2A2A4",
">@	c #B5B4B7",
",@	c #EAEAEB",
"'@	c #9A999D",
")@	c #DDDDDE",
"!@	c #98979B",
"~@	c #9B9A9D",
"{@	c #F4F4F4",
"]@	c #D7D6D8",
"^@	c #C6C5C7",
"/@	c #F8F8F9",
"(@	c #A09FA0",
"_@	c #555557",
":@	c #A09FA2",
"<@	c #717074",
"[@	c #9F9FA1",
"}@	c #9C9B9F",
"|@	c #9B9B9E",
"1@	c #9E9D9E",
"2@	c #808080",
"3@	c #A1A0A3",
"4@	c #555555",
"5@	c #6A696C",
"6@	c #545254",
"7@	c #7D7C7E",
"8@	c #575759",
"9@	c #6B6B6C",
"0@	c #7B7A7D",
"a@	c #6C6B6F",
"b@	c #555556",
"c@	c #5D5D5E",
"d@	c #5C5C5D",
"e@	c #5C5B5C",
"f@	c #5B5B5C",
"g@	c #5B595C",
"h@	c #59595B",
"i@	c #535355",
"                                                                                                ",
"        . + @ # $ % % % & * * = - - - - ; > > > > > , ' @ @ @ @ ) ! ~ { ] ] ] ] ] ^ / (         ",
"      _ : < [ } | 1 2 3 4 5 6 7 8 9 0 a b c d e f & = g ) h i j k l m n o p q r s t u v w       ",
"    x y z 1 A B C D E 8 F G b H d e f & I J K i L l m o p M N t O P Q R S T U V W X Y Z `  .    ",
"  ..+.@.1 2 3 4 6 7 8 F #.b $.d e f %.I J { i j l ^ o p M N t O P Q &.S T U V W X Y Z *.=.-.    ",
"  ;.>.,.2 3 4 6 7 '.F #.b $.d ).!.= I J h i j l n o q M N t O ~.{.&.S T U V W X Y ].*.=.^./.(.  ",
"  # _.:.<.4 6 7 '.0 #.H $.[.).!.= g ) h }.|.1.n o q M N 2.3.~.{.&.S T U V W 4.5.].*.=.^./.6.7.  ",
"  8.9.0.5 E 8 '.0 #.H $.a.).& = g ) h L |.1.n p q M b.2.P Q {.&.S T U c.d.4.5.].*.=.^./.6.e.f.  ",
"  8.g.5 E 8 F 0 b H h.a.i.& j.' K k.L |.m n p q N t O P Q R l.m.n.V W X Y Z o.p.` q./.6.e.e.r.  ",
"  s.t.E 8 F 0 b H d a.f & j.' K k.L u.m v.p q N t O P Q R l.T U V W X Y Z o.p.` /.6.6.e.e.w.7.  ",
"  x.y.8 F #.b c d e f %.I J { i L l m o p M N t O P Q &.S T U V W X Y Z o.=.^./.6.6.e.e.w.z.7.  ",
"  x.| F #.b $.d ).f %.I J { i j l ^ o A.M N t O P {.&.S T U V W X Y Z *.=.^./.6.6.e.w.w.z.z.B.  ",
"  x.1 #.C.$.[.).!.= g ) h i |.l n o q M N t 3.~.{.&.S T U V W X 5.].*.=.^./.6.6.e.w.w.z.z.D.B.  ",
"  # E.H $.a.).!.= g ) h }.|.1.n F.q M b.2.3.~.{.&.S T U V d.4.5.].*.=.^./.6.e.e.w.w.z.D.D.G.B.  ",
"  # 2 h.a.i.& j.' K k.L |.m n p q N t O P Q R l.m.n.U c.X Y Z ].*.=.^./.6.e.e.w.w.z.D.D.G.G.B.  ",
"  # 3 a.i.& j.' K k.L u.m v.p q N t O P Q R l.m.U V W X Y Z o.p.` q.6.6.e.e.w.z.z.D.D.G.H.H.I.  ",
"  J.K.b L.M.N.{ i L l m o p M N t b O.P.Q.R.S U V W L S.T.U.V.W./.6.6./.X.Y.L.Z.`.6.G.H.H. +I.  ",
"  f 4 .+++++@+#+j l ^ o p M N q M.++++++++++$+%+2.&+++++++++++*+=+-+;+>+++++++++++,+'+H. + +)+  ",
"  % B ++++++++!+l n o q M N t ~+++++++++++++++{+]+++++++++++++++++^+++++++++++++++++/+(+_+_+:+  ",
"  % <+[+++++++/+{ o q M b.2.G ++++++++++++++++++++++++++++++++++++++++++++++++++++++++}+_+|+:+  ",
"  1+7 _.++++++++2+q N t O P 3+++++++*+4+5+++++++++*+6+7+8+9+++++++++++0+a+b+c+++++++++*+=.d+:+  ",
"  * e+g f+++++++g+M t O P J ++++++++h+W i+++++++++j+q./.6.k+++++++++l+m+G.G.z.n+++++++++r d+:+  ",
"  * 9 l o+++++++++p+O P Q q+++++++++r+X M.++++++++s+6.6.e.~.++++++++t+G.H.H. +u+++++++++v+w+:+  ",
"  * 0 m K @+++++++x+P Q b.y+++++++z+X Y M.++++++++6.6.e.e.Z ++++++++U.H.H. + +7+++++++++A+w+:+  ",
"  B+#+o A.>.++++++*+C+&.V.++++++++`.Y ].D+++++++++6.e.w.w.].++++++++E+H. +_+_+F+++++++++A+w+:+  ",
"  - C.q M j.*+++++++G+S H+++++++I+5.].*.y ++++++++e.w.w.z.].++++++++E+ +_+_+|+F+++++++++A+w+J+  ",
"  - K+M b.2.L+++++++l+M+++++++++N+].*.=.y ++++++++w.w.z.D.*.++++++++6+_+_+|+d+b+++++++++A+O+J+  ",
"  ; [.t O P e ++++++++l+++++++P+d.*.=.q.Q+++++++++w.z.D.D.=.++++++++6+_+|+d+d+R+++++++++W.O+J+  ",
"  > e O P Q R S+++++++++++++++T+p.` /.6.h+++++++++z.D.D.G.^.++++++++U+|+d+d+w+R+++++++++W.O+J+  ",
"  , ).P Q &.S G ++++++++++++l+V+^./.6.6.h+++++++++D.D.G.H.^.++++++++U+d+d+w+w+R+++++++++W.O+W+  ",
"  ' X+{.&.S T U Y+++++++++++S.^./.6.6.e.Z+++++++`+G.G.H.H.e.++++++++ @d+w+w+w+.@+++++++++@@@W+  ",
"  @ #@&.S T U V c ++++++++$@%@/.6.6.e.w.a+++++++&@G.H.H. +_+*@++++++=@w+w+w+w+-@++++++@+z.@@W+  ",
"  @ ;@S T U V d.4.>@f+++,@'@/.6.e.e.w.w.].)@++0+!@H. + +_+_+~@{@*+]@H.w+w+w+O+O+^@`+/@X.@@@@W+  ",
"  (@; n.U c.d.4.5.].*.c.^./.6.e.e.w.w.z.D.D.6.G.H. + +_+_+|+d+|+H.w+w+w+w+O+O+O+O+_+w+@@@@@@_@  ",
"  ) :@V W X Y Z o.p.` q.6.6.e.e.w.z.z.D.D.G.H.H. + +_+_+|+d+d+w+w+w+w+w+O+O+O+O+@@@@@@@@@@<@_@  ",
"  ! [@W X Y Z o.p.^./.6.6.e.e.w.z.z.D.D.G.H.H. + +_+|+|+d+d+w+w+w+w+w+O+O+O+O+@@@@@@@@@@<@<@_@  ",
"  ! K X Y Z *.=.^./.6.6.e.w.w.z.z.D.D.G.H.H. + +_+|+|+d+d+w+w+w+w+O+O+O+O+O+@@@@@@@@@@<@<@<@_@  ",
"  ~ h Y ].*.=.^./.6.6.e.w.w.z.z.D.G.G.H.H. +_+_+|+|+d+w+w+w+w+w+O+O+O+O+O+@@@@@@@@@@<@<@<@<@_@  ",
"  { }@].*.=.^./.6.6.e.w.w.z.z.D.G.G.H.H. +_+_+|+|+d+w+w+w+w+w+O+O+O+O+O+@@@@@@@@@@<@<@<@<@<@_@  ",
"  { |@*.=.^./.6.e.e.w.w.z.D.D.G.G.H. + +_+_+|+d+d+w+w+w+w+w+O+O+O+O+O+@@@@@@@@<@<@<@<@<@<@<@_@  ",
"  1@|.` q./.6.e.e.w.w.z.D.D.G.G.H. + +_+_+|+d+d+w+w+w+w+w+O+O+O+O+O+@@@@@@@@<@<@<@<@<@<@<@<@_@  ",
"  A.l /.6.6.e.e.w.z.z.D.D.G.H.H. + +_+|+|+d+d+w+w+w+w+w+O+O+O+O+@@@@@@@@@@<@<@<@<@<@<@<@<@<@(.  ",
"  2@3@6.6.e.e.w.z.z.D.D.G.H.H. + +_+|+|+d+d+w+w+w+w+O+O+O+O+O+@@@@@@@@@@<@<@<@<@<@<@<@<@<@<@4@  ",
"  f.C.6.e.w.w.z.z.D.G.G.H.H. +_+_+|+|+d+d+w+w+w+w+O+O+O+O+O+@@@@@@@@@@<@<@<@<@<@<@<@<@<@<@5@6@  ",
"    7@%@w.w.z.z.D.G.G.H.H. +_+_+|+|+d+w+w+w+w+w+O+O+O+O+O+@@@@@@@@@@<@<@<@<@<@<@<@<@<@<@<@8@    ",
"      9@0@z.D.D.G.G.H. + +_+_+|+d+d+w+w+w+w+w+O+O+O+O+O+@@@@@@@@@@<@<@<@<@<@<@<@<@<@<@a@8@      ",
"        b@f.c@d@d@e@f@f@f@f@g@h@h@h@h@h@h@h@h@h@h@h@h@7.7.7.7.B.B.B.B.B.B.B.B.B.B.B.W+i@        ",
"                                                                                                "};
