/* XPM */
static char * bigIcon_xpm[] = {
"48 48 6 1",
" 	c None",
".	c #31639C",
"+	c #003163",
"@	c #9C9C99",
"#	c #555550",
"$	c #898985",
"                                                ",
"                                                ",
"          .......................               ",
"         .                       .              ",
"         . .+++++++++++++++++++. .@             ",
"         . +...................+ .@             ",
"         . +...................+ .@             ",
"         . +...................+ .@             ",
"         . +...................+ .@             ",
"         . +...................+ .@             ",
"         . +...................+ .@             ",
"         . +...................+ .@             ",
"         . +...................+ .@             ",
"         . +...................+ ...........    ",
"         . +.........                       .   ",
"         . +......... .+++++++++ +++++++++. .@  ",
"         . +......... +........+ .........+ .@  ",
"         . +......... +........+ .........+ .@  ",
"         . +......... +........+ .........+ .@  ",
"         . +......... +........+ .........+ .@  ",
"  ........ +......... +........+ .........+ .@  ",
"  .                       .....+ .........+ .@  ",
"  . .+++++ ++++++++++ ++. .....+ .........+ .@  ",
"  . +..... +......... +.+ .....+ .........+ .@  ",
"  . +..... .+++++++++ .++ +++++. .........+ .@  ",
"  . +.....                       .........+ .@  ",
"  . +................ +.+ ................+ .@  ",
"  . +................ +.+ ................+ .@  ",
"  . +................ +.+ ................+ .@  ",
"  . +................ +.+ ................+ .@  ",
"  . +................ +.+ ................+ .@  ",
"  . +................ +.+ ................+ .@  ",
"  . +................ +.+ ................+ .@  ",
"  . +................ +.+ ................+ .@  ",
"  . +................ +.+ ................+ .@  ",
"  . +................ .++ ++++++++++++++++. .@  ",
"  . +................                       .@  ",
"  . +...................+ ..................#@  ",
"  . +...................+ .#@@@@@@@@@@@@@@@@@   ",
"  . +...................+ .@                    ",
"  . +...................+ .@                    ",
"  . +...................+ .@                    ",
"  . .+++++++++++++++++++. .@                    ",
"  .                       .@                    ",
"   .......................$@                    ",
"    @@@@@@@@@@@@@@@@@@@@@@@                     ",
"                                                ",
"                                                "};
