/* XPM */
static char * smallIcon_xpm[] = {
"16 16 4 1",
" 	c None",
".	c #31639C",
"+	c #9CCEFF",
"@	c #003163",
"   .........    ",
"  .+       +.   ",
"  . .@@@@@. .   ",
"  . @.....@ ... ",
"  . @.+       +.",
" .. @. .@@@ @. .",
".+        @ .@ .",
". . @@ @. @ .@ .",
". @ @@ @@ . .@ .",
". @+       +.@ .",
". @..@ @@ ...@ .",
". @... .@ @@@. .",
". @...+       +.",
". .@@@@@. ..... ",
".+       +.     ",
" .........      "};
