/* XPM */
static char * smallIcon_xpm[] = {
"16 16 161 2",
"  	c None",
". 	c #ACACAC",
"+ 	c #A6A6A6",
"@ 	c #A2A2A3",
"# 	c #A0A0A2",
"$ 	c #9F9F9F",
"% 	c #9C9C9D",
"& 	c #99999A",
"* 	c #989698",
"= 	c #959596",
"- 	c #939393",
"; 	c #929092",
"> 	c #8E8E90",
", 	c #808081",
"' 	c #ADADAD",
") 	c #BFBFC0",
"! 	c #B4B4B5",
"~ 	c #AFAFB0",
"{ 	c #AAAAAB",
"] 	c #A6A5A7",
"^ 	c #A1A1A2",
"/ 	c #9D9C9E",
"( 	c #989899",
"_ 	c #949395",
": 	c #919092",
"< 	c #8D8C8F",
"[ 	c #8A898C",
"} 	c #878689",
"| 	c #828185",
"1 	c #B0B0B0",
"2 	c #B3B3B4",
"3 	c #AEAEAF",
"4 	c #A9A9AA",
"5 	c #A5A5A6",
"6 	c #A1A0A2",
"7 	c #9C9B9D",
"8 	c #989799",
"9 	c #908F91",
"0 	c #868589",
"a 	c #838286",
"b 	c #807F83",
"c 	c #6D6C6D",
"d 	c #AAAAAA",
"e 	c #ADADAE",
"f 	c #A9A8AA",
"g 	c #A4A4A5",
"h 	c #A09FA1",
"i 	c #979698",
"j 	c #939294",
"k 	c #8C8B8E",
"l 	c #89888B",
"m 	c #868588",
"n 	c #7F7E82",
"o 	c #7E7D81",
"p 	c #6A6A6C",
"q 	c #A7A7A8",
"r 	c #A8A8A9",
"s 	c #A4A3A5",
"t 	c #9F9FA0",
"u 	c #9B9A9C",
"v 	c #969697",
"w 	c #929194",
"x 	c #8F8E91",
"y 	c #858488",
"z 	c #7D7C80",
"A 	c #7B7A7E",
"B 	c #6A696A",
"C 	c #A4A4A6",
"D 	c #C9C8C9",
"E 	c #ABABAC",
"F 	c #9A999B",
"G 	c #969597",
"H 	c #AAA9AB",
"I 	c #A1A0A3",
"J 	c #C3C3C4",
"K 	c #A9A8AB",
"L 	c #908F93",
"M 	c #BDBDBF",
"N 	c #B1B1B3",
"O 	c #7C7B7F",
"P 	c #69676A",
"Q 	c #A3A3A3",
"R 	c #F7F7F7",
"S 	c #DDDDDD",
"T 	c #959496",
"U 	c #9D9C9F",
"V 	c #FBFBFB",
"W 	c #F9F9F9",
"X 	c #FDFDFD",
"Y 	c #FAFAFA",
"Z 	c #F4F4F4",
"` 	c #FFFFFF",
" .	c #FAFAFB",
"..	c #F1F1F1",
"+.	c #666669",
"@.	c #A0A0A0",
"#.	c #CCCCCD",
"$.	c #9E9D9F",
"%.	c #FCFCFC",
"&.	c #AFAEB0",
"*.	c #B5B5B7",
"=.	c #89888C",
"-.	c #CCCBCD",
";.	c #7A797D",
">.	c #F0EFF0",
",.	c #DDDDDE",
"'.	c #666667",
").	c #9E9E9F",
"!.	c #CCCBCC",
"~.	c #F6F6F6",
"{.	c #D0D0D1",
"].	c #A09FA2",
"^.	c #ACABAD",
"/.	c #C0BFC1",
"(.	c #77767A",
"_.	c #E7E6E7",
":.	c #DEDEDF",
"<.	c #666466",
"[.	c #9C9C9C",
"}.	c #CFCECF",
"|.	c #FEFEFE",
"1.	c #979799",
"2.	c #AAAAAC",
"3.	c #BFBEC0",
"4.	c #757478",
"5.	c #E6E6E7",
"6.	c #9A9A9B",
"7.	c #969598",
"8.	c #F3F2F3",
"9.	c #CBCACC",
"0.	c #8C8B8F",
"a.	c #78777B",
"b.	c #EEEEEF",
"c.	c #ABAAAD",
"d.	c #747377",
"e.	c #D3D2D3",
"f.	c #C8C7C9",
"g.	c #646466",
"h.	c #989898",
"i.	c #88878A",
"j.	c #858487",
"k.	c #828184",
"l.	c #79787C",
"m.	c #767579",
"n.	c #737276",
"o.	c #727175",
"p.	c #646366",
"q.	c #979697",
"r.	c #848387",
"s.	c #818084",
"t.	c #717074",
"u.	c #949396",
"v.	c #818083",
"w.	c #656566",
"x.	c #868688",
"y.	c #6C6C6C",
"z.	c #6C6C6E",
"A.	c #6C6A6D",
"B.	c #69696C",
"C.	c #67666A",
"D.	c #676768",
"  . . + @ # $ % & * = - ; > ,   ",
"' ) ! ~ { ] ^ / ( _ : < [ } |   ",
"1 2 3 4 5 6 7 8 _ 9 < [ 0 a b c ",
"d e f g h 7 i j 9 k l m | n o p ",
"q r s t u v w x k l y | n z A B ",
"C D E F G H D C I J K L M N O P ",
"Q R S T U V W X Y Z `  ...` ) +.",
"@.#.X $.D %.&.` *.=.` -.;.>.,.'.",
").7 V !.~.{.].` ^.O ` /.(._.:.<.",
"[.9 }.|.` 1.U ` 2.;.` 3.4.5.:.<.",
"6.k 7.8.9.n 0.W 7.a.b.c.d.e.f.g.",
"h.i.j.k.n z A l.a.m.d.d.n.o.o.p.",
"q.r.s.n z A l.(.m.d.d.n.o.o.t.p.",
"u.v.o z A l.(.4.d.d.n.o.o.t.t.w.",
"x.n O ;.l.(.4.d.n.n.o.o.t.t.t.  ",
"  y.z.A.p B.P C.C.+.+.+.+.D.    "};
